<mxfile host="app.diagrams.net" agent="Mozilla/5.0 (Windows NT 10.0; Win64; x64) AppleWebKit/537.36 (KHTML, like Gecko) Chrome/135.0.0.0 Safari/537.36" version="26.2.13">
  <diagram name="第 1 页" id="2BHJ6eeiq_Yv8pMzbxQ_">
    <mxGraphModel dx="778" dy="499" grid="1" gridSize="10" guides="1" tooltips="1" connect="1" arrows="1" fold="1" page="1" pageScale="1" pageWidth="827" pageHeight="1169" math="0" shadow="0">
      <root>
        <mxCell id="0" />
        <mxCell id="1" parent="0" />
        <mxCell id="C7cD0-n0wRkoNRG-Afxq-135" value="User" style="shape=umlLifeline;perimeter=lifelinePerimeter;whiteSpace=wrap;container=1;dropTarget=0;collapsible=0;recursiveResize=0;outlineConnect=0;portConstraint=eastwest;newEdgeStyle={&quot;edgeStyle&quot;:&quot;elbowEdgeStyle&quot;,&quot;elbow&quot;:&quot;vertical&quot;,&quot;curved&quot;:0,&quot;rounded&quot;:0};size=65;" vertex="1" parent="1">
          <mxGeometry x="184" y="10" width="150" height="1110" as="geometry" />
        </mxCell>
        <mxCell id="C7cD0-n0wRkoNRG-Afxq-136" value="System" style="shape=umlLifeline;perimeter=lifelinePerimeter;whiteSpace=wrap;container=1;dropTarget=0;collapsible=0;recursiveResize=0;outlineConnect=0;portConstraint=eastwest;newEdgeStyle={&quot;edgeStyle&quot;:&quot;elbowEdgeStyle&quot;,&quot;elbow&quot;:&quot;vertical&quot;,&quot;curved&quot;:0,&quot;rounded&quot;:0};size=65;" vertex="1" parent="1">
          <mxGeometry x="472" y="10" width="150" height="1110" as="geometry" />
        </mxCell>
        <mxCell id="C7cD0-n0wRkoNRG-Afxq-137" value="" style="points=[];perimeter=orthogonalPerimeter;outlineConnect=0;targetShapes=umlLifeline;portConstraint=eastwest;newEdgeStyle={&quot;edgeStyle&quot;:&quot;elbowEdgeStyle&quot;,&quot;elbow&quot;:&quot;vertical&quot;,&quot;curved&quot;:0,&quot;rounded&quot;:0}" vertex="1" parent="C7cD0-n0wRkoNRG-Afxq-136">
          <mxGeometry x="70" y="107" width="10" height="958" as="geometry" />
        </mxCell>
        <mxCell id="C7cD0-n0wRkoNRG-Afxq-140" value="loop" style="shape=umlFrame;pointerEvents=0;dropTarget=0;strokeColor=#B3B3B3;height=20;width=40" vertex="1" parent="1">
          <mxGeometry x="248" y="415" width="319" height="98" as="geometry" />
        </mxCell>
        <mxCell id="C7cD0-n0wRkoNRG-Afxq-141" value="[重新输入]" style="text;strokeColor=none;fillColor=none;align=center;verticalAlign=middle;whiteSpace=wrap;" vertex="1" parent="C7cD0-n0wRkoNRG-Afxq-140">
          <mxGeometry x="40" width="279" height="20" as="geometry" />
        </mxCell>
        <mxCell id="C7cD0-n0wRkoNRG-Afxq-142" value="opt" style="shape=umlFrame;pointerEvents=0;dropTarget=0;strokeColor=#B3B3B3;height=20;width=30" vertex="1" parent="1">
          <mxGeometry x="238" y="317" width="339" height="206" as="geometry" />
        </mxCell>
        <mxCell id="C7cD0-n0wRkoNRG-Afxq-143" value="[信息无效]" style="text;strokeColor=none;fillColor=none;align=center;verticalAlign=middle;whiteSpace=wrap;" vertex="1" parent="C7cD0-n0wRkoNRG-Afxq-142">
          <mxGeometry x="30" width="309" height="20" as="geometry" />
        </mxCell>
        <mxCell id="C7cD0-n0wRkoNRG-Afxq-144" value="opt" style="shape=umlFrame;pointerEvents=0;dropTarget=0;strokeColor=#B3B3B3;height=20;width=30" vertex="1" parent="1">
          <mxGeometry x="248" y="765" width="319" height="98" as="geometry" />
        </mxCell>
        <mxCell id="C7cD0-n0wRkoNRG-Afxq-145" value="[验证失败]" style="text;strokeColor=none;fillColor=none;align=center;verticalAlign=middle;whiteSpace=wrap;" vertex="1" parent="C7cD0-n0wRkoNRG-Afxq-144">
          <mxGeometry x="30" width="289" height="20" as="geometry" />
        </mxCell>
        <mxCell id="C7cD0-n0wRkoNRG-Afxq-146" value="alt" style="shape=umlFrame;pointerEvents=0;dropTarget=0;strokeColor=#B3B3B3;height=20;width=30" vertex="1" parent="1">
          <mxGeometry x="228" y="137" width="414" height="788" as="geometry" />
        </mxCell>
        <mxCell id="C7cD0-n0wRkoNRG-Afxq-147" value="[注册流程]" style="text;strokeColor=none;fillColor=none;align=center;verticalAlign=middle;whiteSpace=wrap;" vertex="1" parent="C7cD0-n0wRkoNRG-Afxq-146">
          <mxGeometry x="30" width="384" height="20" as="geometry" />
        </mxCell>
        <mxCell id="C7cD0-n0wRkoNRG-Afxq-148" value="[登录流程]" style="shape=line;dashed=1;whiteSpace=wrap;verticalAlign=top;labelPosition=center;verticalLabelPosition=middle;align=center;strokeColor=#B3B3B3;" vertex="1" parent="C7cD0-n0wRkoNRG-Afxq-146">
          <mxGeometry y="453" width="414" height="3" as="geometry" />
        </mxCell>
        <mxCell id="C7cD0-n0wRkoNRG-Afxq-149" value="opt" style="shape=umlFrame;pointerEvents=0;dropTarget=0;strokeColor=#B3B3B3;height=20;width=30" vertex="1" parent="1">
          <mxGeometry x="244" y="987" width="318" height="98" as="geometry" />
        </mxCell>
        <mxCell id="C7cD0-n0wRkoNRG-Afxq-150" value="[用户退出]" style="text;strokeColor=none;fillColor=none;align=center;verticalAlign=middle;whiteSpace=wrap;" vertex="1" parent="C7cD0-n0wRkoNRG-Afxq-149">
          <mxGeometry x="30" width="288" height="20" as="geometry" />
        </mxCell>
        <mxCell id="C7cD0-n0wRkoNRG-Afxq-151" value="打开客户端，选择登录/注册" style="verticalAlign=bottom;edgeStyle=elbowEdgeStyle;elbow=vertical;curved=0;rounded=0;endArrow=block;" edge="1" parent="1" source="C7cD0-n0wRkoNRG-Afxq-135" target="C7cD0-n0wRkoNRG-Afxq-137">
          <mxGeometry relative="1" as="geometry">
            <Array as="points">
              <mxPoint x="410" y="117" />
            </Array>
          </mxGeometry>
        </mxCell>
        <mxCell id="C7cD0-n0wRkoNRG-Afxq-152" value="输入注册信息(用户名、密码等)" style="verticalAlign=bottom;edgeStyle=elbowEdgeStyle;elbow=vertical;curved=0;rounded=0;endArrow=block;" edge="1" parent="1" source="C7cD0-n0wRkoNRG-Afxq-135" target="C7cD0-n0wRkoNRG-Afxq-137">
          <mxGeometry relative="1" as="geometry">
            <Array as="points">
              <mxPoint x="410" y="215" />
            </Array>
          </mxGeometry>
        </mxCell>
        <mxCell id="C7cD0-n0wRkoNRG-Afxq-153" value="验证信息有效性" style="curved=1;endArrow=block;rounded=0;" edge="1" parent="1" source="C7cD0-n0wRkoNRG-Afxq-137" target="C7cD0-n0wRkoNRG-Afxq-137">
          <mxGeometry relative="1" as="geometry">
            <Array as="points">
              <mxPoint x="607" y="267" />
              <mxPoint x="607" y="297" />
            </Array>
          </mxGeometry>
        </mxCell>
        <mxCell id="C7cD0-n0wRkoNRG-Afxq-154" value="显示错误信息" style="verticalAlign=bottom;edgeStyle=elbowEdgeStyle;elbow=vertical;curved=0;rounded=0;dashed=1;dashPattern=2 3;endArrow=block;" edge="1" parent="1" source="C7cD0-n0wRkoNRG-Afxq-137" target="C7cD0-n0wRkoNRG-Afxq-135">
          <mxGeometry relative="1" as="geometry">
            <Array as="points">
              <mxPoint x="413" y="395" />
            </Array>
          </mxGeometry>
        </mxCell>
        <mxCell id="C7cD0-n0wRkoNRG-Afxq-155" value="重新输入信息" style="verticalAlign=bottom;edgeStyle=elbowEdgeStyle;elbow=vertical;curved=0;rounded=0;endArrow=block;" edge="1" parent="1" source="C7cD0-n0wRkoNRG-Afxq-135" target="C7cD0-n0wRkoNRG-Afxq-137">
          <mxGeometry relative="1" as="geometry">
            <Array as="points">
              <mxPoint x="410" y="493" />
            </Array>
          </mxGeometry>
        </mxCell>
        <mxCell id="C7cD0-n0wRkoNRG-Afxq-156" value="创建账户成功" style="verticalAlign=bottom;edgeStyle=elbowEdgeStyle;elbow=vertical;curved=0;rounded=0;dashed=1;dashPattern=2 3;endArrow=block;" edge="1" parent="1" source="C7cD0-n0wRkoNRG-Afxq-137" target="C7cD0-n0wRkoNRG-Afxq-135">
          <mxGeometry relative="1" as="geometry">
            <Array as="points">
              <mxPoint x="413" y="565" />
            </Array>
          </mxGeometry>
        </mxCell>
        <mxCell id="C7cD0-n0wRkoNRG-Afxq-157" value="输入登录凭证" style="verticalAlign=bottom;edgeStyle=elbowEdgeStyle;elbow=vertical;curved=0;rounded=0;endArrow=block;" edge="1" parent="1" source="C7cD0-n0wRkoNRG-Afxq-135" target="C7cD0-n0wRkoNRG-Afxq-137">
          <mxGeometry relative="1" as="geometry">
            <Array as="points">
              <mxPoint x="410" y="663" />
            </Array>
          </mxGeometry>
        </mxCell>
        <mxCell id="C7cD0-n0wRkoNRG-Afxq-158" value="验证凭证" style="curved=1;endArrow=block;rounded=0;" edge="1" parent="1" source="C7cD0-n0wRkoNRG-Afxq-137" target="C7cD0-n0wRkoNRG-Afxq-137">
          <mxGeometry relative="1" as="geometry">
            <Array as="points">
              <mxPoint x="607" y="715" />
              <mxPoint x="607" y="745" />
            </Array>
          </mxGeometry>
        </mxCell>
        <mxCell id="C7cD0-n0wRkoNRG-Afxq-159" value="显示错误信息" style="verticalAlign=bottom;edgeStyle=elbowEdgeStyle;elbow=vertical;curved=0;rounded=0;dashed=1;dashPattern=2 3;endArrow=block;" edge="1" parent="1" source="C7cD0-n0wRkoNRG-Afxq-137" target="C7cD0-n0wRkoNRG-Afxq-135">
          <mxGeometry relative="1" as="geometry">
            <Array as="points">
              <mxPoint x="413" y="843" />
            </Array>
          </mxGeometry>
        </mxCell>
        <mxCell id="C7cD0-n0wRkoNRG-Afxq-160" value="登录成功" style="verticalAlign=bottom;edgeStyle=elbowEdgeStyle;elbow=vertical;curved=0;rounded=0;dashed=1;dashPattern=2 3;endArrow=block;" edge="1" parent="1" source="C7cD0-n0wRkoNRG-Afxq-137" target="C7cD0-n0wRkoNRG-Afxq-135">
          <mxGeometry relative="1" as="geometry">
            <Array as="points">
              <mxPoint x="413" y="905" />
            </Array>
          </mxGeometry>
        </mxCell>
        <mxCell id="C7cD0-n0wRkoNRG-Afxq-161" value="进入主界面" style="verticalAlign=bottom;edgeStyle=elbowEdgeStyle;elbow=vertical;curved=0;rounded=0;endArrow=block;" edge="1" parent="1" source="C7cD0-n0wRkoNRG-Afxq-137" target="C7cD0-n0wRkoNRG-Afxq-135">
          <mxGeometry relative="1" as="geometry">
            <Array as="points">
              <mxPoint x="415" y="967" />
            </Array>
          </mxGeometry>
        </mxCell>
        <mxCell id="C7cD0-n0wRkoNRG-Afxq-162" value="取消操作" style="verticalAlign=bottom;edgeStyle=elbowEdgeStyle;elbow=vertical;curved=0;rounded=0;endArrow=block;" edge="1" parent="1" source="C7cD0-n0wRkoNRG-Afxq-135" target="C7cD0-n0wRkoNRG-Afxq-137">
          <mxGeometry relative="1" as="geometry">
            <Array as="points">
              <mxPoint x="412" y="1065" />
            </Array>
          </mxGeometry>
        </mxCell>
      </root>
    </mxGraphModel>
  </diagram>
</mxfile>
